<?xml version="1.0" encoding="UTF-8"?>
<svg id="Ebene_2" data-name="Ebene 2" xmlns="http://www.w3.org/2000/svg" viewBox="0 0 510.32 121.07">
  <defs>
    <style>
      .cls-1 {
        fill: #c2c8ce;
      }

      .cls-2 {
        fill: #c3c6cb;
      }

      .cls-3 {
        fill: #36908f;
      }

      .cls-4 {
        fill: #3ca19d;
      }

      .cls-5 {
        fill: #399896;
      }

      .cls-6 {
        fill: #51b2ac;
      }

      .cls-7 {
        fill: #3d9f9b;
      }

      .cls-8 {
        fill: #c7ccd2;
      }

      .cls-9 {
        fill: #50b2ad;
      }

      .cls-10 {
        fill: #2b6d71;
      }
    </style>
  </defs>
  <g id="Ebene_1-2" data-name="Ebene 1">
    <g>
      <path class="cls-4" d="M448.31,78.82c-.18,12.14-.73,26.15,0,38.13-2.66-.11-5.31-.31-7.96-.42-4.46-.18-8.94-.27-13.41-.42l4.82-4.6c6.33-7.56,7.95-17.55,4.05-26.69-.9-2.11-2.51-3.81-3.01-6,5.16.06,10.34,0,15.5,0Z"/>
      <path class="cls-4" d="M481.83,87.61c3.55.53,9.99,6.5,10.99,9.76.18.57.5.86.14,1.55-.52.98-2.26.52-1.91,1.46s2.02,1.02,2.34,1.45c.26.34-.46,1.19-.21,1.64.48.85,4.45,1.16,4.55,4.51.09,2.69-3.04,3.6-3.33,4.77h-3.35c.24,1.46-.36,3.9.06,5.18.3.91,2.3.94,2.9.5.13-.09.79-2.89.81-3.17,1.35,1.15,2.75,2.04,4.61,2.09v1.26c-.15.05-1.57,1.28-2.71,1.69-4.83,1.73-9.95.23-14.47-1.69-3.06-6.56-7.98-12.18-11.32-18.64,6.08-.78,10.27-6.51,10.9-12.36Z"/>
      <path class="cls-4" d="M477.64,117.78c-1.83-.26-6.7-.42-8.59-.42h-12.99c-.8,0-2.71-.37-3.98-.42-.14,0-.28,0-.42,0v-16.34h15.29c3.27,5.07,6.83,10.03,9.94,15.2.39.65.88,1.1.74,1.98Z"/>
      <path class="cls-9" d="M451.66,78.82c0,.14,0,.28,0,.42-.07,6,.05,12.02,0,18.02h19.06c.5,0,2.72-1.33,3.28-1.75,2.87-2.15,4.42-6.02,4.47-9.56l3.35,1.26c0,.14.01.28,0,.42-.63,5.85-4.82,11.58-10.9,12.36,3.33,6.46,8.26,12.08,11.32,18.64-1.01-.08-2.14.16-3.13-.02-.68-.12-1.25-.78-1.48-.82.13-.87-.35-1.33-.74-1.98-3.11-5.17-6.67-10.13-9.94-15.2h-15.29v16.34c-1.11-.05-2.24.04-3.35,0-.73-11.98-.18-25.99,0-38.13h3.35Z"/>
      <path class="cls-9" d="M431.97,78.82c.28,0,.56,0,.84,0,.5,2.19,2.11,3.89,3.01,6,3.9,9.13,2.28,19.13-4.05,26.69l-4.82,4.6c-.42-.01-.84.01-1.26,0-2.44-.08-5.03-.34-7.54-.42,16.76-3.45,21.5-25.33,9.64-36.87,1.39.03,2.8-.02,4.19,0Z"/>
      <path class="cls-8" d="M481.83,87.19l-3.35-1.26c0-.14,0-.28,0-.42-.21-4.36-4.23-11.31-9.01-11.31h-17.81c-.02,1.53.02,3.08,0,4.61h-3.35c.02-1.18-.38-7.96.63-7.96h18.85c8.58,0,14.55,8.28,14.04,16.34Z"/>
      <path class="cls-1" d="M414.37,70.85c.81-.05,1.7-.03,2.51,0,.93.03,2.09-.13,2.93,0,3.78.6,10.21,4.61,12.15,7.96-1.39-.02-2.8.03-4.19,0-.14,0-.28,0-.42,0-5.71-6.36-16.33-6.5-22.62-.84-.14,0-.28,0-.42,0-1.39-.02-2.8.03-4.19,0,3.57-4.41,8.62-6.74,14.25-7.12Z"/>
      <path class="cls-6" d="M494.4,112.75c-.21.84.45,1.86.42,2.51-.01.28-.68,3.07-.81,3.17-.61.43-2.6.4-2.9-.5-.42-1.28.18-3.72-.06-5.18h3.35Z"/>
      <rect class="cls-2" x="506.97" y="112.75" width="3.35" height="5.87"/>
      <path class="cls-8" d="M499.42,112.75h2.52s0,5.62,0,5.62c-.09.57-1.97.06-2.52.24v-1.26c0-1.34-.13-2.91,0-4.19.01-.14-.01-.28,0-.42Z"/>
      <path class="cls-2" d="M451.66,116.94c.14,0,.28,0,.42,0,.26,2.37-2.09,1.59-3.77,1.68-.03-.56.04-1.12,0-1.68,1.11.04,2.24-.05,3.35,0Z"/>
      <path class="cls-4" d="M499.42,113.17l-.41-.21.41-.21c-.01.14.01.28,0,.42Z"/>
      <path class="cls-4" d="M356.97,77.56c-.08,10.04-.06,20.12,0,30.17-3.64.44-7.14-.92-10.69-1.25-10.18-.93-21.48-1.18-31.63-.43-.14.01-.28,0-.42,0,.24-9.61-.32-19.3,0-28.91,0-.14,0-.28,0-.42,14.16,2.16,28.51-.74,42.74.84Z"/>
      <path class="cls-4" d="M399.29,77.98l-4.09,7.85c-3.21,8.67-1.67,17.69,4.09,24.83.31.39.61.58.84.84,1.04,1.17,2.49,2.38,2.93,3.77-14.19-.18-28.48-.26-42.74-.42.02-.7,0-1.4,0-2.09,2.3-.09,4.63.11,6.93.02,3.9-.16,7.87-.29,11.69-.42,1.66-.05,3.26-1.24,4.63-1.3,3.38-.16,4.97,1.58,9.84.22,2.67-.74.92-1.11-.68-1.39-8.77-1.57-23.25-1.74-32.42-1.73.02-4.04-.01-8.11,0-12.15h23.46v-2.93h-23.46c.09-5.16-.12-10.35,0-15.5,12.96.4,26,.18,38.97.42Z"/>
      <path class="cls-7" d="M276.95,26.02c2.67.21,7.28,0,9.42.43.94.18,1.16.98,1.74,1.19,1.44.52.71-.67,1.4-1.4.44-.46,1.79-.6,2.1-1.26.17-.37-1.4,0-.62-.63,1.83.81,3.85.18,5.76.52,1.48.27,2.24,1.39,3.86,1.59,5.04.61,9.5-.65,14.25-.42.93.04,5.97.56,5.66,1.87s-6.1,1.39-7.46,1.76c-1.78.48-2.44,2.07-4.26,1.81l.84-1.67c-1.84-.63-2.46.65-3.37,1.03-2.61,1.09-12.33-.18-15.69-.23-2.06-.03-3.6.83-5.45.9-2.75.09-6.08-.93-9.01-.45.36-1.66.53-3.32.42-5.03.14.01.28-.01.42,0ZM294.54,28.12c.06-1.66-2.14-1.63-2.93-.62l2.93.62Z"/>
      <path class="cls-1" d="M276.11,18.06c-1.29.01-2.39.39-3.35.42-.14,0-.28,0-.42,0-.1-1.58-.56-4.43-2.51-4.19l.82-.42c.55-.73-4.06-5.72-5.01-6.49-10.89-8.78-25.63-2.23-28.5,10.69h-3.77c.03-.13-.03-.29,0-.42.38-1.47,1.11-2.71,1.26-4.19l-2.51-.42c3.74.91,4.59-3.24,6.71-5.65,2.51-2.84,7.58-6.14,11.3-6.93,12.35-2.6,22.96,6.04,25.98,17.6Z"/>
      <path class="cls-1" d="M237.14,31.47c4.35,13.72,21.64,18.76,31.18,7.09,1.81-2.21,2.33-4.51,3.6-6.67.12-.2.13-.35.42-.42.87-.22,2.37.15,3.35,0-.03.13.04.29,0,.42-6.59,21.88-36.53,21.79-42.32-.42-.03-.13.03-.29,0-.42,1.27.11,2.48.34,3.77.42Z"/>
      <path class="cls-7" d="M276.11,18.06c2.65-.02,2.56.87,2.71.84.45-.08,1.49-1.07,2.55-1.23,2.44-.38,6.97-.11,9.63-.04,9.18.22,18.51,1.53,27.64,2.02.87.05,4.91-1.09,5.13.28.26,1.6-1.59,2.33,2.62,2.33-.15.72-.84.85-1.47.87-7.93.3-16.27-.38-24.3-.88-4.84-.3-10.28-.26-14.99-.92-3.09-.44-3.97-.01-7.24.09-.81.02-1.68-.42-1.45.84-.06-.29-.31-.61-.42-1.26-.16-.96-.17-1.99-.42-2.93Z"/>
      <path class="cls-9" d="M360.32,77.56c-.12,5.16.09,10.35,0,15.5h23.46v2.93h-23.46c-.01,4.04.02,8.11,0,12.15-1.12,0-2.24,0-3.35,0,0-.14,0-.28,0-.42-.06-10.04-.08-20.12,0-30.17,0-.14,0-.28,0-.42,1.1.44,2.2.38,3.35.42Z"/>
      <path class="cls-8" d="M293.7,71.27h38.13s0,2.94,0,2.94h-17.18s-.42.42-.42.42c-.13.42.03,1.5,0,2.09,0,.14,0,.28,0,.42h-3.35c-.03-.97.02-1.96,0-2.94-4.74-.1-9.51.14-14.25,0-.97-.03-1.96.02-2.94,0,0-.98,0-1.96,0-2.94Z"/>
      <path class="cls-9" d="M400.13,77.98c1.39.03,2.8-.02,4.19,0-7.29,7.13-9.57,18.35-4.69,27.52.61,1.15,3.3,4.25,3.43,4.74l-3.77.42c-5.76-7.14-7.3-16.16-4.09-24.83l4.09-7.85c.28,0,.56,0,.84,0Z"/>
      <path class="cls-8" d="M356.97,77.14c.02-1.95-.01-3.92,0-5.87h31v2.94s-27.65,0-27.65,0c-.02,1.11.03,2.24,0,3.35-1.15-.04-2.25.02-3.35-.42Z"/>
      <path class="cls-9" d="M276.53,26.02c.12,1.7-.06,3.37-.42,5.03-.03.13-.39.29-.42.42-.98.15-2.48-.22-3.35,0,.49-1.82.62-3.59.84-5.45,1.11.07,2.25-.1,3.35,0Z"/>
      <path class="cls-1" d="M276.53,21c.11.65.35.97.42,1.26.08.36-.05.86,0,1.26-.56.02-1.12-.02-1.68,0,.16.86,1.01.76,1.68.83v1.68c-.14-.01-.28.01-.42,0-1.1-.1-2.25.07-3.35,0,.02-.14-.01-.28,0-.42s0-.28,0-.42l.42-.42c0-.28,0-.56,0-.84,0-.38-.41-.75-.42-.84-.04-.69.07-1.42,0-2.09h3.35Z"/>
      <path class="cls-7" d="M276.95,23.51c1.53-.05,3.08.04,4.61,0-.6,1.24-3.41.96-4.61.83-.66-.07-1.51.03-1.68-.83.56-.02,1.12.02,1.68,0Z"/>
      <path class="cls-3" d="M310.88,15.55c.33,1.47-1.45.66-2.32.86l-3.54-.86h5.87Z"/>
      <path class="cls-4" d="M314.23,74.63l.42-.42c-.08.17-.39.32-.42.42Z"/>
      <path class="cls-4" d="M52.37,12.2c.28,0,.56,0,.84,0,.06,0,.47.42,1.01.44,3.98.11,7.99-.11,11.98-.02,0,.14,0,.28,0,.42-.02,6.7.01,13.41,0,20.11-.14,0-.28,0-.42,0-10.56-.21-21.98.25-32.41-1.31-5.54-.83-9.02-3.48-14.09-5.39-.06-.5-.41-1.08-.42-1.26-.27-5.45,1.22-9.52,4.19-13.83,9.75.8,19.54.6,29.33.84Z"/>
      <path class="cls-7" d="M100.14,80.91c.28,0,.56,0,.84,0l5.45,10.06c-3,.13-5.63-1.35-8.58-1.68-.6.02.43,1.14.04,1.7-.84,1.21-10.81.93-12.82.82-.14,0-.28,0-.42,0l-3.77-10.47c6.58-.7,12.44-.45,19.27-.42Z"/>
      <path class="cls-7" d="M45.25,98.93c5.58.9,10.24.14,15.92.42-.94,2.24-2.21,4.76-2.51,7.12-.14,0-.28,0-.42,0-11.74-.33-24.3-1.19-36.03-2.09.02-1.25-.02-2.52,0-3.77,5.79-.47,12.56.64,18.23,0,1.36-.15,3-.71,3.98-1.68.27.04.57-.04.84,0Z"/>
      <path class="cls-2" d="M15.92,20.58l1,.86c-2.27.55.4,3.46,1.93,3.75,0,.17.36.76.42,1.26,2.01,16.76,20.5,25.75,32.25,12.35,1.76-2.01,1.09-3.71,4.58-1.84-.7,3.78-5.5,7.67-8.9,9.26-16.31,7.61-32.02-6-31.71-22.7.03-1.33.31-2.01.42-2.93Z"/>
      <path class="cls-2" d="M51.53,82.17c-1.12,0-2.24,0-3.35,0-.03-.11-.36-.26-.42-.42-1.06-2.91-4.84-7.54-8.17-7.54h-17.39c-.01,3.21.01,6.43,0,9.64,0,.14,0,.28,0,.42-1.13.19-2.22.67-3.35.84.01-4.6,0-9.22,0-13.83h22.42c4.02,0,9.42,7.17,10.27,10.89Z"/>
      <path class="cls-7" d="M124.86,80.49c-1.62,3.26-3.59,6.49-5.53,9.56-.13.21-.71.02-.75.07-1.47-.78-3.43-1.92-2.93.84-1.48.06-2.63-1.12-4.05-1.26-.94-.09-1.15.38-1.39.42-.14.02-.28-.03-.42,0-1.17-3.27-4.15-5.87-5.03-9.22,6.69-.05,13.37-.44,20.11-.42Z"/>
      <path class="cls-7" d="M68.71,81.33l-3.35,9.22c-.14-.01-.28.02-.42,0-.89-.13-3.09-.58-3.24-1.53-.09-.59.79-1.87-1.94-.93-.98.34-.56,2.17-1.3,2.89-.64.63-6.85,1.93-.85,2.93.15-1.94,1.04-1.18,2.73-1.26-.46,1.15-2.83,2.2-3.96,2.08-.72-.07-1.6-.95-2.63-1.15-1.18-.23-2.37.04-3.47-.1.34-1.3.99-2.43,1.26-3.77,1.17.05,3.26.25,3.77-1.05s-3.13.16-3.35-1.46c.1-1.7-.04-3.38-.42-5.03,3.71,0,6.42.39,10.16-.1,2.57-.34,3.97-.85,7.01-.74Z"/>
      <path class="cls-7" d="M116.48,101.44c1.45-1.52,13.7-.52,14.25,0,.25.23-1.44,1.94,1.04,2.13,3.44.27,8.42-1.85,11.94-2.13v4.61c-.14,0-.28,0-.42,0-.7-.01-1.4,0-2.09,0-1.67-.02-3.36.03-5.03,0-6.57-.13-13.13-.33-19.69-.42.03-1.36-.13-2.87,0-4.19Z"/>
      <path class="cls-7" d="M18.43,96.83v7.12c-1.4-.18-2.92-.05-4.29-.53-.76-.26-1.41-1.63-2.35-1.07-.11.07-.19.76-.76,1.1-1.76,1.04-4.86-.24-6.85-.34-.29-.33,1.66-2.06.45-3.91-.74-1.15-3.92-.57-4.64-1.95,5.96-.68,12.38-.53,18.43-.42Z"/>
      <path class="cls-6" d="M64.52,99.76c.08,0,.58.38,1.26.42.9,1.54,2.98,1.85,3.77,0,4.67-.03,9.45-.16,14.25,0,1.2.04,3.04.36,4.61.42.14,0,.28,0,.42,0l1.68,4.61c-1.11,0-2.24-.04-3.35,0-.14,0-.28,0-.42,0-.02-1.03-.29-2.35-1.47-2.51-6.46.59-14.26-.78-20.55-.02-1.81.22-2.15,2.26-2.7,3.79-.14,0-.28,0-.42,0-.98-.01-1.96.03-2.93,0,.31-2.37,1.57-4.89,2.51-7.12.95.05,2.18.34,3.35.42Z"/>
      <path class="cls-6" d="M22.2,96.83c4.86.07,9.58.72,14.66.42l-.63.84c2.78-.28,5.46.42,8.17.84-.98.97-2.62,1.52-3.98,1.68-5.67.64-12.44-.47-18.23,0-.02,1.25.03,2.52,0,3.77-1.18-.09-2.21-.3-3.35-.42-.14-.01-.28.02-.42,0v-7.12c.08,0,.3-.42.42-.42.64.01,2.12.4,3.35.42Z"/>
      <path class="cls-7" d="M86.73,105.21c-2.34.1-8.98,1.3-10.67.87-.64-.16.35-1.4-.86-1.29-1.05.09-2.21,1.42-3.81,1.65-2.61.37-6.61.06-9.39.04.55-1.53.89-3.58,2.7-3.79,6.29-.76,14.09.61,20.55.02,1.18.17,1.45,1.49,1.47,2.51ZM67.45,103.96c-.42-.28-3.49.47-2.51,1.25.4.32,2.92.02,2.51-1.25Z"/>
      <path class="cls-2" d="M69.13,81.33l3.98-10.06c.5-.6,2.79-.68,3.19-.15,1.6,2.11,2.81,7.65,4.15,10.21-.97.17-1.9.6-2.93.42-.88-2.1-1.74-4.24-2.72-6.29l-2.72,6.29c-.14-.01-.28.01-.42,0-.89-.08-1.82-.38-2.51-.42Z"/>
      <path class="cls-2" d="M90.5,33.15c.28,0,.56,0,.84,0l8.8,14.46c-.99.25-3,.44-3.91.14-1.23-.4-.48-2.25-1.95-2.03v-.42c.04-1.19-1.28-1.87-1.68-2.51-.31-.49-.61-.88-.84-1.26-.15-.25-.17-.9-.48-1.39-1.48-2.35-3.18-4.57-4.55-6.99,1.25.02,2.52-.01,3.77,0Z"/>
      <path class="cls-2" d="M69.55,33.15c-.04,1.25,0,2.52,0,3.77-.03,3.63.02,7.27,0,10.9h-3.78v-14.67c.14,0,.28,0,.42,0,1.11.02,2.24-.02,3.35,0Z"/>
      <path class="cls-2" d="M90.5,105.21c.14,0,.28,0,.42,0,.95,2.29,1.82,5.88,2.93,7.96.1.19.2.35.42.42.47,1.72,1.82,3.18,1.68,5.03-4.74,1.05-3.76-2.63-5.87-5.44l-2.93-7.96c1.11-.04,2.24,0,3.35,0Z"/>
      <path class="cls-2" d="M22.2,104.37c-.09,4.74.07,9.51,0,14.25h-3.36v-14.67c1.14.12,2.18.33,3.35.42Z"/>
      <path class="cls-2" d="M61.59,106.47l-4.56,11.89c-.29.37-4,.72-3.77-.32.77-3.46,3.91-8,4.98-11.57.14,0,.28,0,.42,0,.98.03,1.96-.01,2.93,0Z"/>
      <path class="cls-6" d="M128.63,80.49l-6.28,11.31c-.14.03-.74.32-.84.42-1.18-.05-2.4.45-2.93-.84.13-.21-.12-1.11,0-1.26.04-.05.62.14.75-.07,1.94-3.07,3.91-6.31,5.53-9.56.14,0,.28,0,.42,0,1.11,0,2.24-.02,3.35,0Z"/>
      <path class="cls-1" d="M147.06,106.05c0,1.21-.3,8.09,0,8.38.34.34,2.99-.77,2.51.83-3.44-.43-2.44.47-2.51,3.36-.64-.12-3.17.16-3.36,0-.12-.1.12-1.15,0-1.26v-11.31c1.11.02,2.24-.06,3.35,0Z"/>
      <path class="cls-7" d="M18.85,85.1c0,1.85.36,4.29-.42,5.87-1.6-.22-9.57-.76-9.18-3.08s7.82-2.52,9.6-2.78Z"/>
      <path class="cls-2" d="M103.91,80.91c-.98,0-1.96,0-2.93,0-.28,0-.56,0-.84,0l-5.86-9.43c-.43-1.09,3.48-.77,3.97-.2l5.66,9.63Z"/>
      <path class="cls-2" d="M127.37,76.72c.5-.79,3.48-5.48,3.77-5.65.91-.55,2.69-.07,3.77-.21l-5.86,9.63c-.14,0-.28,0-.42,0-1.11-.02-2.24,0-3.35,0,.76-1.17,1.37-2.62,2.09-3.77Z"/>
      <path class="cls-6" d="M103.91,80.91c.28,0,.56,0,.84,0,.88,3.35,3.85,5.95,5.03,9.22-1,.2-1.98.74-2.93.84-.14.01-.28,0-.42,0l-5.45-10.06c.98,0,1.96,0,2.93,0Z"/>
      <path class="cls-3" d="M113.12,114.01c1.11.02,2.24.01,3.35,0,4.13-.04,8.57-1.25,12.57.21.02.97-11.26.64-12.57.63-1.11,0-2.24.02-3.35,0-2.23-.05-5.02-.42-6.91-.42h-6.28l-5.66-.84c-.22-.07-.32-.23-.42-.42,2.86.09,5.75-.12,8.61-.02,3.39.12,7.28.8,10.67.86Z"/>
      <path class="cls-6" d="M80.44,81.33c.13-.02.28.01.42,0l3.77,10.47c-1.02-.06-1.93-.27-2.93-.42-.14-.02-.28.02-.42,0-.91-3.21-2.49-6.17-3.77-9.22-.05-.12.05-.3,0-.42,1.04.18,1.96-.25,2.93-.42Z"/>
      <path class="cls-6" d="M71.64,81.75l-2.93,8.8c-.14,0-.28,0-.42,0-.94,0-2.03.1-2.93,0l3.35-9.22c.14,0,.28,0,.42,0,.69.04,1.62.34,2.51.42Z"/>
      <path class="cls-8" d="M116.48,105.63c-.07,2.79.05,5.59,0,8.38-1.11.01-2.24.02-3.35,0v-8.38c1.12.01,2.24-.02,3.35,0Z"/>
      <path class="cls-2" d="M22.2,90.97v5.87c-1.23-.02-2.71-.41-3.35-.42-.25-1.34.35-3.92,0-5.03.72-.85,2.31-.27,3.35-.42Z"/>
      <path class="cls-3" d="M34.36,110.66h-6.91c-.36,0-4.14-.8-3.14-1.67,2.88-.1,5.83.02,8.61.82.57.16,1.3.05,1.45.86Z"/>
      <path class="cls-1" d="M116.48,114.85c-.27.93.68,3.8-.63,3.79-3.35-.04-2.8-.8-2.72-3.79,1.11.02,2.24,0,3.35,0Z"/>
      <path class="cls-5" d="M40.64,110.24c.1.11.04.96-.19,1.27-.66.91-3.83.04-4-.65-.39-1.62,4.03-.79,4.19-.62Z"/>
      <path class="cls-5" d="M74.99,112.76c.59.61-.04.76-.62.83-1.5.19-3.29-.14-4.82,0-.31-1,.75-1.12,1.5-1.21.79-.09,3.5-.08,3.95.38Z"/>
      <path class="cls-3" d="M90.08,113.17c-.51,1.22-5.04,1.11-5.02.21.02-1.09,4.21-.59,5.02-.21Z"/>
      <path class="cls-3" d="M67.87,111.92c1.35,1.36-3.03,2.57-3.35,1.04-.29-1.36,3.21-1.18,3.35-1.04Z"/>
      <path class="cls-5" d="M131.98,108.56c-1.31-.12-3.76.66-3.77-1.25.38-.5,4.08-.36,3.77,1.25Z"/>
      <path class="cls-3" d="M49.44,111.5h-6.28l3.98-.87c.83.02,2.01-.15,2.31.87Z"/>
      <path class="cls-6" d="M22.2,84.26c0,2.23,0,4.47,0,6.7-1.04.15-2.63-.43-3.35.42-.01-.04-.41-.17-.42-.42.78-1.58.41-4.02.42-5.87,1.13-.16,2.22-.65,3.35-.84Z"/>
      <path class="cls-1" d="M174.29.47c5.32.62,9.46,4.48,11.51,9.22.82,1.89,0,2.82,2.31,3.56-2.26,0-.93,2.68-1.25,4.4l-.42.42h-3.35c1.24-4.79-1.17-11.05-5.73-13.33-.89-.44-3.7-1.33-4.53-1.33h-15.71c.23,1.33-.31,9.24,0,9.64h-3.35c.29-3.9-.39-8.32,0-12.15.01-.14-.01-.28,0-.42,6.5.55,14.18-.74,20.53,0Z"/>
      <path class="cls-1" d="M99.3,13.04c-1.12,0-2.24,0-3.35,0-.69-4.49-5.56-9.64-10.27-9.64h-16.13c0,3.21.01,6.43,0,9.64h-3.35c0-.14,0-.28,0-.42.01-4.04,0-8.11,0-12.15h21.16c5.41,0,11.36,7.51,11.94,12.57Z"/>
      <path class="cls-2" d="M28.91,1.72c8.33-3.59,22-.73,26.07,8.08.89,1.93-.93.72-1.76,2.39-.28,0-.56,0-.84,0C46.27.63,30.54.71,23.04,10.94c-1.04-.02-2.34-.67-3.35-.42v-.42c1.64-3.02,6.1-7.04,9.22-8.38Z"/>
      <path class="cls-6" d="M118.99,18.06c.14,0,.28,0,.42,0,1.05,2.53,2.83,5.67,4.49,7.85.17.23-.02.77.74.53.46-.15,4.52-7.23,4.82-8.38.14,0,.28,0,.42,0,1.12,0,2.24,0,3.35,0,.14.88-.37,1.33-.74,1.98-1.26,2.16-5.68,8.03-6.19,9.73-.37,1.24-.15,2.53-.19,3.79-1.12,0-2.24,0-3.35,0-.06-1.48.17-2.57-.32-4.08-1.11-3.41-5.81-7.62-6.8-11.42,1.11.03,2.24-.02,3.35,0Z"/>
      <path class="cls-2" d="M133.23,13.04c.02-.75.46-1.29.82-1.9,1.09-1.79,5.47-9.38,6.51-10.25.72-.6,4.31-.89,3.97.2l-7.54,11.95c-1.25,0-2.52,0-3.77,0Z"/>
      <path class="cls-2" d="M111.87,13.04l-7.96-12.36c.99-.22,2.98-.43,3.89-.21.75.18,6.9,11.61,8.26,13-1.52.02-3.15-.42-4.19-.42Z"/>
      <path class="cls-7" d="M129.46,18.06c-.3,1.15-4.36,8.24-4.82,8.38-.76.24-.57-.31-.74-.53-1.66-2.18-3.44-5.33-4.49-7.85,3.34.06,6.71-.03,10.06,0Z"/>
      <path class="cls-3" d="M133.23,13.04c1.25,0,2.52,0,3.77,0,5.58-.03,11.18,0,16.76,0h3.35c.05.07.6-.06.84,0,.26.27-.81.74-.84.83-1.15-.93-2.31-.05-3.35,0-5.66.29-12.01.47-17.6.42-.69,0-2.61-.35-3.77-.42.07-.22-.04-.58,0-.84.28,0,.56,0,.84,0Z"/>
      <path class="cls-7" d="M111.87,13.04c1.04,0,2.67.44,4.19.42,1.94-.03,3.74-.36,5.45-.42v.84c-1.46.09-2.85.42-4.61.42-1.22,0-2.57-.03-3.77,0-4.63.1-9.31-.09-13.83,0-.02-.41.05-.85,0-1.26,4.17.03,8.48,0,12.57,0Z"/>
      <path class="cls-1" d="M136.17,14.29l-2.09,3.77c-.28,0-.56,0-.84,0-1.12,0-2.24,0-3.35,0,.51-1.46,2.08-2.77,2.51-4.19,1.16.07,3.08.41,3.77.42Z"/>
      <path class="cls-1" d="M116.89,14.29l2.09,3.77c-1.11-.02-2.24.03-3.35,0-.14,0-.28,0-.42,0l-2.09-3.77c1.2-.03,2.55,0,3.77,0Z"/>
      <path class="cls-10" d="M121.5,13.04c1.44-.05,4.24-.5,5.03.83-1.66.08-3.37-.1-5.03,0v-.84Z"/>
      <path class="cls-10" d="M132.4,13.04c-.04.26.07.62,0,.84-1.2-.07-3.17.5-3.77-.83,1.25-.02,2.52.01,3.77,0Z"/>
      <path class="cls-3" d="M153.76.88l-.41-.21.41-.21c-.01.14.01.28,0,.42Z"/>
      <path class="cls-4" d="M208.65,18.06c0,.98,0,1.96,0,2.93-1.38,0-10.67-.09-10.9.63-.3.99.93.57,1.47.62,3.15.25,6.31.9,9.43.42,0,.7,0,1.39,0,2.09,0,2.37,0,4.75,0,7.12-15.61.17-30.6.49-46.09,1.26-1.84.09-3.73.37-5.45.42.03-1.11-.02-2.24,0-3.35h16.13c.46,0,3.28-.53,3.91-.7,4.58-1.24,9-6.71,9.29-11.45l.42-.42,21.79.42Z"/>
      <path class="cls-1" d="M208.65,17.64c-.02-4.6.01-9.22,0-13.83h-16.97c-.81,0-.67-2.67-.63-3.35h38.55c.04.68.18,3.35-.63,3.35h-16.97c-.02,4.6.02,9.22,0,13.83h-3.35Z"/>
      <path class="cls-5" d="M233.37,17.64c-.03.13.03.29,0,.42-.16.71-.32,1.37-.42,2.09-6.99.11-14.11-.29-20.95,1.26,0-.14,0-.28,0-.42,0-1.12,0-2.24,0-3.35,5.64,0,11.34.16,16.99.02,1.49-.04,2.74-.71,4.38-.02Z"/>
      <path class="cls-9" d="M212,17.64c0,1.12,0,2.24,0,3.35h-3.35c0-.98,0-1.96,0-2.93,0-.14,0-.28,0-.42h3.35Z"/>
      <path class="cls-5" d="M356.97,112.33c0,.84-.02,1.68,0,2.51-6.26-.07-12.54-.45-18.85-.42s-13.73,1.08-19.5.43c-.63-.07-1.29-.09-1.45-.85,1.08.23,2.21-.43,3.16-.44,11.39-.07,23.4-.59,34.78-1.65.68-.06,1.31.38,1.86.4Z"/>
      <path class="cls-1" d="M411.44,115.27c2.18.06,4.42.34,6.7.42,2.51.08,5.1.33,7.54.42-.45.6-1.2.64-1.68,1.26l-.84.42c-1.52-.08-4.3,1.07-6.13,1.2-4.5.33-9.2-.87-12.73-3.72,2.37.04,4.76-.06,7.12,0Z"/>
      <path class="cls-9" d="M411.44,115.27c-2.37-.06-4.76.04-7.12,0-.42,0-.84,0-1.26,0-.44-1.39-1.9-2.6-2.93-3.77,1,.79,2.63.43,2.93-.84,2.74,1.71,5.23,3.63,8.38,4.61Z"/>
      <path class="cls-1" d="M360.32,114.85c-.03,1.25.02,2.52,0,3.77h-3.11c-.45-.06-.23-3.08-.24-3.77,1.12.01,2.24-.01,3.35,0Z"/>
      <path class="cls-2" d="M232.11,115.27c.98.02,1.96-.02,2.94,0,.02.28-.02.56,0,.84.04.83-.02,1.68,0,2.52-6.28-.02-12.58.01-18.86,0-4.18-.01-8.39,0-12.57,0-.02-1.25.03-2.52,0-3.77h1.26c1.73.78,4.29.41,6.28.42s5.07.29,6.94.02c4.93-.7,8.83-.13,14.01-.02Z"/>
      <path class="cls-7" d="M186.45,100.18c0,1.95,0,3.92,0,5.87,0,.14,0,.28,0,.42-5.44,0-10.9-.01-16.34,0l2.51-5.45c.14-.01.28.01.42,0,4.67-.35,8.57-.84,13.41-.84Z"/>
      <path class="cls-7" d="M203.62,99.76c0,2.09,0,4.19,0,6.28h-13.83v-5.45l13.83-.84Z"/>
      <path class="cls-7" d="M161.31,102.28l2.51,4.19c-3.93.03-10.22.9-13.65.45-.61-.08-.84-.75-3.11-.87,0-1.25,0-2.52,0-3.77,4.73.21,9.52-.15,14.25,0Z"/>
      <path class="cls-2" d="M189.8,106.05h.42c-.39,2.07.59,11.06-.18,12.18-.51.74-2.68.29-3.59.39,0-4.04.01-8.11,0-12.15,0-.14,0-.28,0-.42h3.35Z"/>
      <path class="cls-6" d="M172.62,101.02l-2.51,5.45c-.14,0-.28,0-.42,0-1.81,0-3.64-.01-5.45,0-.14,0-.28,0-.42,0l-2.51-4.19v-.42c1.25-.03,2.52.04,3.77,0,.14,0,.28,0,.42,0,.35,3.95,2.57,2.51,2.93-.42.23-.02.6-.4.84-.42,1.1-.09,2.25.09,3.35,0Z"/>
      <path class="cls-8" d="M206.98,106.05c0,.14,0,.28,0,.42v8.38c-.7,0-1.4,0-2.09,0h-1.26c-.05-2.78,0-5.59,0-8.38l.42-.42h2.93Z"/>
      <path class="cls-2" d="M169.69,106.47c-1.34,3.74-4.58,4.38-5.45,0,1.81-.01,3.64,0,5.45,0Z"/>
      <path class="cls-3" d="M193.15,115.68c-.2-1.2.25-.7.97-.89.76-.21,4.89-.89,4.89.27,0,1.06-4.96.5-5.86.63Z"/>
      <path class="cls-2" d="M203.62,106.47c0-.14,0-.28,0-.42h.42l-.42.42Z"/>
      <path class="cls-1" d="M314.23,106.05c.14,0,.28.01.42,0-.39,2.05.6,11.06-.18,12.18-.51.74-2.68.29-3.59.39-.02-1.25.03-2.52,0-3.77,1.06-.02,3.35.52,2.93-.84-.96-.07-1.97.09-2.93,0-.03-2.65,0-5.31,0-7.96,1.11-.05,2.24.07,3.35,0Z"/>
      <path class="cls-5" d="M310.88,114.01c0,.28,0,.56,0,.84-2.6.06-5.19.36-7.73.44-6.05.17-12.29-.51-18.24.4,0-.14,0-.28,0-.42.01-.56,0-1.12,0-1.68,8.5-.1,17.57-.36,25.98.42Z"/>
      <path class="cls-3" d="M277.78,113.59c.14,0,.28,0,.42,0l.84,1.68c-3.42,0-7.09.18-10.47,0-1.6-.08-3.39-.62-5.03-.63-.02-.8,4.29-.61,5.03-.63,3.08-.08,6.19-.35,9.22-.42Z"/>
      <path class="cls-2" d="M284.91,115.27c0,.14,0,.28,0,.42-.03.97.03,1.96,0,2.94-3.21.64-4.04-.78-5.45-3.35h5.45Z"/>
      <path class="cls-8" d="M360.32,108.14c0,1.39.01,2.8,0,4.19-1.11-.04-2.24.05-3.35,0-.01-1.39.01-2.8,0-4.19,1.12,0,2.24,0,3.35,0Z"/>
      <path class="cls-9" d="M284.91,113.59c0,.56.01,1.12,0,1.68h-5.87l-.84-1.68c2.23-.05,4.48.03,6.7,0Z"/>
      <path class="cls-4" d="M245.52,78.82h.42c0,.14,0,.28,0,.42-.05,8.93.03,17.88,0,26.81-.14,0-.28,0-.42,0s-.28,0-.42,0c-12.56.01-25.15,0-37.71,0h-.42c0-2.37-.05-4.76,0-7.12,1.34.52,2.65.75,2.52-1.05l-2.52-.21c.04-.7-.03-1.4,0-2.1h24.31s0-2.93,0-2.93h-24.3c.02-4.04-.03-8.11,0-12.15,8.61.29,17.18-.52,25.79-.44,1.32.01,2.47.52,3.73.46,2.56-.12,5.57-2.91,9.02-1.7ZM214.51,98.09l-2.93,1.25c.87-.05,3.19.23,2.93-1.25Z"/>
      <path class="cls-4" d="M250.13,78.4l21.37,27.65c-.98,0-1.96,0-2.93,0-6.28.03-12.58-.01-18.85,0-.14,0-.28,0-.42,0,.05-9.07-.04-18.16,0-27.23.09-.02.39-.34.84-.42Z"/>
      <path class="cls-2" d="M249.29,106.05c0,.14,0,.28,0,.42-.02,4.04.22,8.15-.24,12.16h-3.53s0-12.16,0-12.16v-.42c.14,0,.28,0,.42,0,1.12,0,2.24,0,3.35,0Z"/>
      <path class="cls-5" d="M261.86,115.27h-9.85c-.45,0-1.4-.64-1.05-1.26h8.17c.41,0,2.73.65,2.72,1.26Z"/>
      <path class="cls-3" d="M232.11,115.27l-.62-.84c1.86-.55,4.75-.42,6.6.09.35.1.72.35.72.74l-3.77.84c-.01-.28.02-.56,0-.84-.97-.02-1.96.02-2.94,0Z"/>
      <path class="cls-7" d="M206.98,114.85c1.31,0,3.23-.35,4.19.42-1.99,0-4.56.36-6.28-.42.7,0,1.4,0,2.09,0Z"/>
      <path class="cls-7" d="M206.98,106.47c0-.14,0-.28,0-.42h.42l-.42.42Z"/>
      <path class="cls-6" d="M23.04,10.94c-.07.09.07.32,0,.42-2.97,4.3-4.46,8.37-4.19,13.83-1.53-.29-4.2-3.2-1.93-3.75l-1-.86c.05-.4-.07-.88,0-1.26.31-1.74,2.02-8.36,3.77-8.8,1.01-.25,2.32.4,3.35.42Z"/>
      <path class="cls-7" d="M19.69,10.1v.42c-1.75.44-3.46,7.06-3.77,8.8-.93-.04-2.66-1.11-2.87-1.97-.47-1.88,3.01-2.42,1.65-4.44-.54-.8-3.46-.78-2.97-1.75,2.4-1.7,5.23-1.59,7.96-1.05Z"/>
      <path class="cls-4" d="M478.47,85.52c0,.14,0,.28,0,.42-.06,3.54-1.6,7.42-4.47,9.56-.56.42-2.78,1.75-3.28,1.75h-19.06c.05-6-.07-12.02,0-18.02,6.8.48,14.97.67,21.36,3.15,2.09.81,3.55,2.13,5.45,3.14Z"/>
      <path class="cls-4" d="M427.36,78.82c.14,0,.28,0,.42,0,11.86,11.54,7.12,33.42-9.64,36.87-2.28-.08-4.53-.36-6.7-.42-3.15-.98-5.64-2.9-8.38-4.61.02-.1.03-.32,0-.42-.13-.49-2.82-3.59-3.43-4.74-4.88-9.17-2.6-20.39,4.69-27.52.14,0,.28,0,.42,0,1.72.03,3.94.42,5.24.42h11.73c1.44,0,3.81.38,5.66.42Z"/>
      <path class="cls-4" d="M296.22,77.14c4.88,0,9.78,0,14.66,0,.27,9.46-.05,19.02,0,28.49-8.67-.09-17.31.33-25.98.42.02-9.63.09-19.28,0-28.91.14,0,.28,0,.42,0,3.62-.05,7.27,0,10.89,0Z"/>
      <path class="cls-4" d="M281.55,77.14c-.09,9.63.05,19.28,0,28.91-1.67.01-3.36-.01-5.03,0-.14,0-.28,0-.42,0l-21.79-28.07c1.97-.17,5.53-.42,7.33-.42h15.5c.99,0,2.92-.39,4.4-.42Z"/>
      <path class="cls-6" d="M206.98,80.07c0,.14,0,.28,0,.42-.03,4.04.02,8.11,0,12.15h24.3v2.94s-24.3,0-24.3,0c-.03.69.04,1.4,0,2.1-.02.42,0,.84,0,1.26-.05,2.36,0,4.76,0,7.12h-3.35c0-2.09,0-4.19,0-6.28,0-.56,0-1.12,0-1.68-.01-5.86-.02-11.74,0-17.6,0-.14,0-.28,0-.42h3.35Z"/>
      <path class="cls-9" d="M253.9,77.98c.14-.01.28.01.42,0l21.79,28.07c-1.39,0-2.8,0-4.19,0-.14,0-.28,0-.42,0l-21.37-27.65c.94-.16,2.76-.34,3.77-.42Z"/>
      <path class="cls-4" d="M232.53,25.19c.09,1.84.42,4.07.84,5.87.03.13-.03.29,0,.42-5.37.1-10.77-.12-16.15-.02-1.63.03-3.36.41-5.22.44,0-1.95,0-3.92,0-5.87,4.59-.72,10.92,1.51,15.18-.03,2.27-.82,2.49-.85,5.35-.81Z"/>
      <path class="cls-8" d="M208.23,71.27c8.79-.12,17.61.09,26.4,0v2.94h-27.65c-.01,1.95.02,3.92,0,5.87h-3.35c.01-2.93,0-5.87,0-8.8,1.53-.01,3.08.02,4.61,0Z"/>
      <path class="cls-8" d="M212,31.89c-.02,5.3.01,10.62,0,15.92h-3.11c-.45-5.27-.22-10.63-.24-15.92,1.12-.01,2.24.02,3.35,0Z"/>
      <path class="cls-1" d="M245.94,78.4c.02-2.37-.01-4.76,0-7.12.79.13,2.23-.26,2.85.09.84.49,3.84,5.67,5.11,6.61-1.01.08-2.83.26-3.77.42-.45.08-.75.4-.84.42-1.11.21-2.17.63-3.35.42,0-.14,0-.28,0-.42s0-.28,0-.42Z"/>
      <path class="cls-8" d="M281.55,77.14c.02-1.95-.01-3.92,0-5.87h3.36c.01,1.81-.02,3.64,0,5.45,0,.14,0,.28,0,.42-1.11.02-2.24-.02-3.35,0Z"/>
      <path class="cls-10" d="M245.94,78.82h-.42l.42-.42c0,.14,0,.28,0,.42Z"/>
      <path class="cls-9" d="M314.23,77.14c-.32,9.61.24,19.29,0,28.91-1.11.07-2.24-.05-3.35,0,0-.14,0-.28,0-.42-.05-9.47.27-19.03,0-28.49h3.35Z"/>
      <path class="cls-9" d="M360.32,112.33c0,.14,0,.28,0,.42,0,.7.02,1.4,0,2.09-1.12-.01-2.24.01-3.35,0-.02-.84,0-1.68,0-2.51,1.11.05,2.24-.04,3.35,0Z"/>
      <path class="cls-1" d="M403.06,110.24c.03.09.02.32,0,.42-.31,1.26-1.93,1.62-2.93.84-.23-.26-.53-.45-.84-.84l3.77-.42Z"/>
      <path class="cls-5" d="M272.34,18.48c.14,0,.28,0,.42,0,.08.85.32,1.66.42,2.51-4.14,0-8.3.04-12.34.02-1.99-.01-15.94.09-16.54-.49-.18-.17.22-1.14-.25-1.24-2.23-.47-5.69,1.24-7.73,1.29.14-.84.31-1.67.42-2.51h.42c11.69,0,23.59.61,35.19.42Z"/>
      <path class="cls-9" d="M276.11,18.06c.25.95.26,1.98.42,2.93h-3.35c-.09-.85-.34-1.66-.42-2.51.96-.03,2.06-.41,3.35-.42Z"/>
      <path class="cls-9" d="M236.72,18.06c-.11.84-.27,1.68-.42,2.51-.65.01-2.11-.44-3.35-.42.1-.72.26-1.39.42-2.09h3.35Z"/>
      <path class="cls-7" d="M235.88,25.19c.72,0,1.67.47,2.72.45,1.38-.02,4.88-1.05,5.8-.91.51.08.24,1.53,1.74,1.3.16-.02.17-.79.48-.86s4.05.39,4.46.52c.77.24,1.03,1.37,2.18,1.19.19-.03.22-.85.39-.84.55.03,1.68.77,2.59.79,1.18.03,2.14-.78,3.32-.82,1.54-.06,3.1.95,4.61.9.8-.03.58-.79,1.12-1.01,2.02-.82,5.61,0,7.87-.29-.01.14.02.28,0,.42-.21,1.86-.34,3.63-.84,5.45-.28.07-.3.22-.42.42-4.41-.25-8.79-.49-13.22-.44-7.3.08-14.17.46-21.56.02-.55-1.73-1.17-4.5-1.26-6.28Z"/>
      <path class="cls-6" d="M235.88,25.19c.09,1.78.71,4.56,1.26,6.28-1.29-.08-2.5-.3-3.77-.42-.42-1.79-.75-4.02-.84-5.87,1.11.02,2.24,0,3.35,0Z"/>
      <path class="cls-7" d="M273.17,23.09c0,.09.41.46.42.84h-2.51c-.56-.25,1.54-.99,2.09-.84Z"/>
      <path class="cls-7" d="M273.17,25.19c.02-.26.42-.39.42-.42l-.42.42Z"/>
      <path class="cls-4" d="M115.22,18.06c.14,0,.28,0,.42,0,.99,3.81,5.69,8.01,6.8,11.42.49,1.51.26,2.6.32,4.08-10.48-.01-21-.3-31.42-.42-.28,0-.56,0-.84,0-.18-1.47-1.87-2.23-1.68-3.77,6.32-1.26,9.93-6.35,10.48-12.57.14,0,.28,0,.42,0,5.22.3,10.18,1.08,15.5,1.26Z"/>
      <path class="cls-4" d="M134.07,18.06c6.42.04,12.86,0,19.27,0v15.5c-9.06.18-18.17,0-27.23,0,.04-1.26-.18-2.55.19-3.79.51-1.7,4.93-7.58,6.19-9.73.38-.65.88-1.1.74-1.98.28,0,.56,0,.84,0Z"/>
      <path class="cls-7" d="M203.62,80.49c-.02,5.86-.01,11.74,0,17.6l-13.83-1.26v-16.76c.14,0,.28,0,.42,0,.06,0,.46.43,1.01.44,4.13.07,8.27-.09,12.4-.02ZM191.89,94.32c-.25,1.64,3.45,2.9,3.77,1.46.29-1.29-2.91-1.69-3.77-1.46Z"/>
      <path class="cls-7" d="M180.58,80.49c-.97,3.74-4.03,6.86-5.45,10.47-.14,0-.28,0-.42,0-5.29-.35-10.62-.49-15.92-.42-.07-.11-.54-.3-.76-.69-1.64-2.83-3.74-5.88-4.68-8.95,9.12-.13,18.16-.12,27.23-.42Z"/>
      <path class="cls-7" d="M143.71,81.33c-.01,3.76,0,7.55,0,11.31-1.23-.17-2.19-.86-3.56-.87-1.93-.01-9.49,2.2-10.69,1.29-.17-.13,1.15-2.65-2.51-2.09v2.1c-2.32.65-2.73-1.63-4.61-1.26l6.28-11.31c.14,0,.28,0,.42,0,5.04.12,9.65.38,14.66.84Z"/>
      <path class="cls-6" d="M157.12,18.06c-.08,2.92.06,5.87,0,8.8h17.81c3.12,0,8.35-5.4,7.75-8.8h3.77c-.29,4.74-4.71,10.21-9.29,11.45-.63.17-3.45.7-3.91.7h-16.13c-.02,1.11.03,2.24,0,3.35-1.11.03-2.24-.02-3.35,0-.14,0-.28,0-.42,0v-15.5h3.77Z"/>
      <path class="cls-1" d="M143.71,81.33c.01-3.35,0-6.71,0-10.06.88.18,3.13-.29,3.71.07.46.29,4.51,8.31,5.09,9.57-1,.03-2.02-.17-2.93.42-.62-1.08-1.55-2.56-2.51-3.35-.02,1.25,0,2.52,0,3.77-1.14-.09-2.22-.32-3.35-.42Z"/>
      <path class="cls-1" d="M190.22,80.07c-.14,0-.28,0-.42,0-1.1-.04-2.26-.05-3.35,0-1.21.06-1.58.42-1.68.42-1.11.03-2.24-.04-3.35,0,.6-1.69,4.31-8.9,5.45-9.42.82-.37,2.95-.57,3.29.47.62,1.9-.34,6.3.06,8.53Z"/>
      <path class="cls-8" d="M126.11,33.57c-.16,4.73.12,9.51,0,14.25h-3.11c-.58-4.71-.05-9.52-.24-14.25,1.12,0,2.24,0,3.35,0Z"/>
      <path class="cls-8" d="M157.12,33.57c-.09,3.82.63,10.5,0,13.83l-.42.42c-.85.16-2.02-.11-2.94,0v-14.25c1.12-.02,2.24.03,3.35,0Z"/>
      <path class="cls-6" d="M152.51,80.91c.28,0,.56,0,.84,0,.94,3.07,3.05,6.12,4.68,8.95.22.38.7.57.76.69.06.1-.06.31,0,.42-1.71.63-1.03,1.45-2.93,1.68-.14.02-.28,0-.42,0-1.49-3.77-3.84-7.36-5.87-10.89-.06-.11.06-.31,0-.42.91-.59,1.93-.39,2.93-.42Z"/>
      <path class="cls-6" d="M181.42,80.49c1.11-.04,2.24.03,3.35,0l-5.87,10.89c-.14-.01-.28.01-.42,0-1.13-.11-2.22-.34-3.35-.42,1.41-3.61,4.48-6.73,5.45-10.47.28,0,.56.01.84,0Z"/>
      <path class="cls-4" d="M156.7,47.81l.42-.42c-.06.32-.1.36-.42.42Z"/>
      <path class="cls-6" d="M69.55,13.04c-.02,4.6.01,9.22,0,13.83h18.23c.19,0,2.17-.96,2.59-1.18,3.27-1.71,5.19-5.27,5.58-8.88,1.11.07,2.24-.07,3.35,0-.54,6.22-4.16,11.31-10.48,12.57-.2,1.54,1.49,2.3,1.68,3.77-1.25-.01-2.52.02-3.77,0-.14,0-.28,0-.42,0-.1-.63-.84-2.33-1.22-2.66-.97-.86-13.23.09-15.54-.27-.02.97.03,1.96,0,2.94-1.11-.02-2.24.02-3.35,0,.01-6.7-.02-13.41,0-20.11h3.35Z"/>
      <path class="cls-2" d="M84.63,91.8c.14,0,.28,0,.42,0,.27.69.51,1.94.84,2.51.36,1.33-1.5.75-2.51,1.26-.57-1.37-1.51-2.64-1.68-4.19,1,.15,1.91.36,2.93.42Z"/>
      <path class="cls-2" d="M49.86,93.48c-.65,2.45-2.97,3.76-4.61,5.45-.26-.04-.57.04-.84,0-2.71-.41-5.39-1.11-8.17-.84l.63-.84c3.76-.23,7.4-.06,9.22-4.19.13.04.29-.03.42,0,.81.19,2.39.29,3.35.42Z"/>
      <path class="cls-7" d="M22.2,83.84c.71-.18,2.06-.56,2.52-1.06,1.06-1.15-.12-1.95,3.35-1.45.57.49-2.1,2.09-1.04,2.93,1.04-.09,2.27.2,3.26-.09,1.23-.36,1.33-2.18,2.6-2.43,1.83-.36,3.67.44,5.44.45,2.97.02,6.32-.9,9.43-.45.06.15.39.3.42.42.97,3.54.16,7.78-1.68,10.89-.13-.03-.29.04-.42,0-1.42-.39-1.83-2.11-3.23-2.43-3.71-.84-9.39.54-13.35-1.32-.96-.22-1.68,2.05-2.07,2.06-.15,0-.79-1.14-1.7-1.27-.77-.11-2.29.68-3.53.86,0-2.23,0-4.47,0-6.7,0-.14,0-.28,0-.42Z"/>
      <path class="cls-6" d="M51.53,82.17c.38,1.65.52,3.33.42,5.03-.02.38-.32,2.01-.42,2.51-.26,1.34-.92,2.47-1.26,3.77-.14-.02-.28.02-.42,0-.96-.12-2.55-.23-3.35-.42,1.83-3.12,2.65-7.36,1.68-10.89,1.12,0,2.24,0,3.35,0Z"/>
      <path class="cls-2" d="M109.77,90.13c.13-.03.28.02.42,0l.42,1.26c-.28.01-.56-.01-.84,0-.11,1.31,1.04,1.31,2.09,1.25l1.26,2.51c-.8.05-1.96-.47-1.68.84,2.31.19,4.06.5,6.28-.42.09-.73-1.18-.4-1.67-.41.44-1.41,1.83-2.66,2.51-3.77.54,1.29,1.75.79,2.93.84-.35.34-4.92,7.9-5.03,8.38h-3.77c-.38-2.35-4.87-7.11-5.87-9.64.95-.1,1.93-.64,2.93-.84Z"/>
      <path class="cls-2" d="M68.29,90.55l-3.77,9.22c-1.17-.08-2.4-.37-3.35-.42,1.24-2.93,2.75-5.77,3.77-8.8.14.02.28-.01.42,0,.9.1,1.99,0,2.93,0Z"/>
      <path class="cls-8" d="M147.06,93.06c0,3.07,0,6.15,0,9.22-1.16-.05-2.23-.19-3.35-.42v-.42c0-2.93,0-5.87,0-8.8,1.07.15,2.31.42,3.35.42Z"/>
      <path class="cls-6" d="M116.48,100.6c-.05.24.03.56,0,.84-.13,1.32.03,2.83,0,4.19-1.12-.02-2.24.01-3.35,0-.14,0-.28,0-.42,0-.17-1.57.24-3.53,0-5.03h3.77Z"/>
      <path class="cls-6" d="M147.06,102.28c0,1.25,0,2.52,0,3.77-1.11-.06-2.24.02-3.35,0v-4.19c1.12.23,2.2.37,3.35.42Z"/>
      <path class="cls-4" d="M69.55,33.15c.03-.97-.02-1.96,0-2.94,2.32.36,14.58-.59,15.54.27.38.34,1.11,2.03,1.22,2.66-5.58-.07-11.18.11-16.76,0Z"/>
      <path class="cls-7" d="M88.82,100.6c2.68.1,6.12-.35,8.62-.03.81.1.42.86,1.21.92,1.6.11,3.44-.77,5.05-.88,2.88-.19,6.08,0,9,0,.24,1.49-.17,3.46,0,5.03-7.27-.07-14.54-.35-21.79-.42-.14,0-.28,0-.42,0l-1.68-4.61Z"/>
      <path class="cls-2" d="M87.15,96.83c.06,1,1.45,2.51,1.26,3.77-1.57-.06-3.41-.38-4.61-.42l1.26-.22c-.59-1.12-.81-2.41-1.26-3.56l3.35.42Z"/>
      <path class="cls-1" d="M69.55,100.18c-.79,1.85-2.87,1.54-3.77,0,1.24.07,2.53,0,3.77,0Z"/>
      <path class="cls-7" d="M77.51,82.17c1.28,3.05,2.86,6.01,3.77,9.22-5.42-.81-7.01-.91-12.57-.84l2.93-8.8c.14.01.28-.01.42,0,1.81.19,3.6.61,5.45.42Z"/>
      <path class="cls-9" d="M99.3,13.04c.05.41-.02.84,0,1.26-1.11.02-2.24-.03-3.35,0-.02-.41.06-.87,0-1.26,1.12,0,2.24,0,3.35,0Z"/>
      <path class="cls-1" d="M157.12,13.87c-.22.66.03,3.17,0,4.19h-3.35v-4.19c1.04-.05,2.21-.93,3.35,0Z"/>
      <path class="cls-9" d="M212,24.77c0,.42,0,.84,0,1.26,0,1.95,0,3.92,0,5.87-1.12.02-2.24-.01-3.35,0,0-2.37,0-4.75,0-7.12h3.35Z"/>
      <path class="cls-1" d="M212,21c0,.14,0,.28,0,.42,0,1.12,0,2.24,0,3.35h-3.35c0-.7,0-1.4,0-2.09,0-.56,0-1.12,0-1.68h3.35Z"/>
      <path class="cls-6" d="M189.8,100.18v5.87h-3.35c0-1.95,0-3.92,0-5.87h3.35Z"/>
      <path class="cls-2" d="M175.13,96.41c0,1.73-1.74,2.92-2.09,4.61-.14.01-.28-.01-.42,0-1.1.09-2.25-.09-3.35,0,.36-1.69,2.1-2.87,2.09-4.61,1.23.05,2.55.06,3.77,0Z"/>
      <path class="cls-2" d="M165.08,101.86c-1.25.04-2.52-.03-3.77,0l-5.45-9.22c1.91-.23,1.22-1.04,2.93-1.68,2.1,3.62,4.05,7.35,6.28,10.89Z"/>
      <path class="cls-7" d="M168.43,101.44c-.37,2.93-2.59,4.37-2.93.42,1.11-.07,2-.34,2.93-.42Z"/>
      <path class="cls-9" d="M310.88,114.01c.96.09,1.97-.07,2.93,0,.42,1.36-1.87.81-2.93.84,0-.28,0-.56,0-.84Z"/>
      <path class="cls-1" d="M276.11,106.05c.14,0,.28,0,.42,0,1.22,2.26,3.14,4.59,5.02,6.28.02-2.09,0-4.19,0-6.28,1.12,0,2.24.01,3.35,0,0,2.51.03,5.03,0,7.54-2.23.03-4.48-.05-6.7,0-.14,0-.28,0-.42,0l-5.87-7.54c1.39,0,2.8,0,4.19,0Z"/>
      <path class="cls-9" d="M249.29,78.82c-.04,9.07.05,18.16,0,27.23-1.12,0-2.24,0-3.35,0,.03-8.93-.05-17.88,0-26.81,1.18.21,2.24-.21,3.35-.42Z"/>
      <path class="cls-9" d="M284.91,77.14c.09,9.63.02,19.28,0,28.91-1.12.01-2.24,0-3.35,0,.05-9.63-.09-19.28,0-28.91,1.11-.02,2.24.02,3.35,0Z"/>
      <path class="cls-10" d="M258.51,13.04v.84h-13.41c-.24-.32.85-.84,1.05-.84h12.36Z"/>
      <path class="cls-10" d="M261.02,14.29c-.34-1.54,1.86-.6,2.74-.86l3.54.86h-6.28Z"/>
      <path class="cls-1" d="M236.3,20.58c-.28,1.62-.5,2.92-.42,4.61-1.11,0-2.24.02-3.35,0-.09-1.99.16-3.2.42-5.03,1.25-.02,2.71.43,3.35.42Z"/>
      <path class="cls-7" d="M99.72,16.81c-.14,0-.28,0-.42,0,.01-.14,0-.28,0-.42l.42.42Z"/>
      <path class="cls-6" d="M189.8,80.07v17.18c-1.11-.06-2.25.09-3.35,0,0-.7,0-1.4,0-2.09,0-.56,0-1.12,0-1.68,0-4.46,0-8.94,0-13.41,1.1-.05,2.26-.04,3.35,0Z"/>
      <path class="cls-2" d="M178.48,91.38l-2.09,3.77c-.78,0-3.46-.05-3.77,0l2.09-4.19c.14,0,.28,0,.42,0,1.14.08,2.22.31,3.35.42Z"/>
      <path class="cls-6" d="M147.06,81.75c-.04,3.76,0,7.55,0,11.31-1.04,0-2.28-.27-3.35-.42,0-3.76-.01-7.55,0-11.31,1.14.1,2.22.33,3.35.42Z"/>
      <path class="cls-4" d="M182.67,18.06c.59,3.4-4.63,8.8-7.75,8.8h-17.81c.06-2.92-.08-5.88,0-8.8h25.56Z"/>
      <path class="cls-7" d="M186.45,80.07c0,4.46,0,8.94,0,13.41l-6.28-.42,2.93-1.25c-1.39-.46-2.83-.28-4.19-.42l5.87-10.89c.1,0,.46-.36,1.68-.42Z"/>
      <path class="cls-7" d="M149.58,81.75c2.03,3.54,4.38,7.13,5.87,10.89-1.44.02-2.84-.42-3.94-.38-1.34.04-2.65.8-4.44.8,0-3.76-.04-7.55,0-11.31.83.06,1.68-.04,2.51,0Z"/>
      <path class="cls-4" d="M95.95,13.04c.06.38-.02.85,0,1.26-3.66.09-7.54.75-11.12.85-2.08.06-4.5-.94-6.89-.01.17.79.83.76,1.46.84,5.26.72,11.17.5,16.56.83-.39,3.6-2.31,7.16-5.58,8.88-.42.22-2.4,1.18-2.59,1.18h-18.23c.01-4.6-.02-9.22,0-13.83,8.79,0,17.61-.07,26.4,0Z"/>
      <path class="cls-1" d="M99.3,14.29c.04.68.04,1.42,0,2.09,0,.14.01.28,0,.42-1.11-.07-2.24.07-3.35,0,.08-.73.04-1.76,0-2.51,1.11-.03,2.24.02,3.35,0Z"/>
      <path class="cls-5" d="M92.59,96.41c.88-1.84,7.62-2.49,7.94-.57.1.61-.86,1.42-1.44,1.42-.76,0-2.04-1.49-3.04-1.62s-2.13,1.29-3.46.78Z"/>
      <path class="cls-6" d="M85.89,94.32c.68,1.2,1.58.75,1.68.84.17.17-.44,1.32-.42,1.67l-3.35-.42c-.09-.23-.29-.52-.42-.84,1.02-.51,2.87.08,2.51-1.26Z"/>
      <path class="cls-4" d="M113.12,95.16c.94-.06,1.99-.03,2.93,0,.49.02,1.76-.32,1.67.41-2.22.92-3.97.61-6.28.42-.29-1.31.88-.79,1.68-.84Z"/>
      <path class="cls-7" d="M110.61,91.38c2.83-.15,4.12,1.1,1.26,1.26-1.05.06-2.2.05-2.09-1.25.28-.02.56.01.84,0Z"/>
      <path class="cls-5" d="M131.11,95.61c1,1.61-2.03,1.64-2.48.59-.76-1.79,2.33-.83,2.48-.59Z"/>
      <path class="cls-5" d="M81.7,94.74c1.04,1.05-2.32,1.25-2.71,1.27-3.13.16-6.97,0-10.08-.43-.63-.09-1.29-.06-1.46-.84,2.17-.16,13.23-1.03,14.25,0Z"/>
      <path class="cls-5" d="M168.43,13.04c-.11.86-1.68.75-2.31.88l-4.4-.88h6.7Z"/>
      <path class="cls-10" d="M217.87,23.09c.68.52,0,.76-.62.84-1.37.17-3-.12-4.4,0-.3-1.59,1.32-.41,2.26-.45.85-.04,1.8-.62,2.77-.38Z"/>
      <path class="cls-1" d="M189.8,97.25v2.93h-3.35c0-.98,0-1.96,0-2.93,1.1.09,2.25-.06,3.35,0Z"/>
      <path class="cls-4" d="M176.39,95.16c1.33,0,3.8-.41,4.61.83-1.94-.39-4.19.35-5.86.42-1.22.06-2.55.05-3.77,0-.56-.02-1.12.02-1.67,0v-.41c1.03.16,2.13-.72,2.93-.84.31-.05,3,0,3.77,0Z"/>
      <path class="cls-5" d="M186.45,95.16c0,.7,0,1.4,0,2.09-1.22-.1-2.71.16-3.35-1.25l3.35-.84Z"/>
    </g>
  </g>
</svg>